<svg xmlns="http://www.w3.org/2000/svg" width="982" height="330" viewBox="0 0 982 330" font-family="Segoe UI, Roboto, Helvetica, Arial, sans-serif">
<defs>
  <filter id="sh" x="-6%" y="-6%" width="112%" height="118%"><feDropShadow dx="1.5" dy="2" stdDeviation="2.5" flood-opacity="0.14"/></filter>
  <marker id="ar" markerWidth="9" markerHeight="7" refX="8" refY="3.5" orient="auto"><polygon points="0 0, 9 3.5, 0 7" fill="#64748b"/></marker>
  <marker id="arG" markerWidth="9" markerHeight="7" refX="8" refY="3.5" orient="auto"><polygon points="0 0, 9 3.5, 0 7" fill="#d97706"/></marker>
</defs>
<rect x="0" y="0" width="982" height="330" rx="14" fill="#f8fafc" stroke="#e2e8f0"/>
<text x="28" y="34" font-size="20" font-weight="700" fill="#0f172a">The pipeline at a glance</text>
<text x="28" y="52" font-size="12" fill="#64748b">Verification gates (amber) run between stages to catch gaps before they reach downstream work</text>
<line x1="186" y1="115" x2="218" y2="115" stroke="#64748b" stroke-width="2" marker-end="url(#ar)"/>
<line x1="378" y1="115" x2="410" y2="115" stroke="#64748b" stroke-width="2" marker-end="url(#ar)"/>
<line x1="570" y1="115" x2="602" y2="115" stroke="#64748b" stroke-width="2" marker-end="url(#ar)"/>
<line x1="762" y1="115" x2="794" y2="115" stroke="#d97706" stroke-width="2" marker-end="url(#arG)"/>
<line x1="186" y1="237" x2="218" y2="237" stroke="#d97706" stroke-width="2" marker-end="url(#arG)"/>
<line x1="378" y1="237" x2="410" y2="237" stroke="#64748b" stroke-width="2" marker-end="url(#ar)"/>
<line x1="570" y1="237" x2="602" y2="237" stroke="#d97706" stroke-width="2" marker-end="url(#arG)"/>
<line x1="762" y1="237" x2="794" y2="237" stroke="#64748b" stroke-width="2" marker-end="url(#ar)"/>
<path d="M 875 144 V 176 H 107 V 206" fill="none" stroke="#d97706" stroke-width="2" stroke-dasharray="0" marker-end="url(#arG)"/>
<rect x="28" y="86" width="158" height="58" rx="11" fill="#eef2ff" stroke="#6366f1" stroke-width="2" stroke-dasharray="5 4" filter="url(#sh)"/>
<circle cx="44" cy="102" r="11" fill="#6366f1"/>
<text x="44" y="106" font-size="12" font-weight="700" fill="#fff" text-anchor="middle">0</text>
<text x="113" y="111" font-size="13" font-weight="600" fill="#3730a3" text-anchor="middle">forge-0-epic</text>
<text x="113" y="128" font-size="10.5" fill="#64748b" text-anchor="middle">optional</text>
<rect x="220" y="86" width="158" height="58" rx="11" fill="#dbeafe" stroke="#2563eb" stroke-width="2" filter="url(#sh)"/>
<circle cx="236" cy="102" r="11" fill="#2563eb"/>
<text x="236" y="106" font-size="12" font-weight="700" fill="#fff" text-anchor="middle">1</text>
<text x="305" y="111" font-size="13" font-weight="600" fill="#1e3a8a" text-anchor="middle">forge-1-prd</text>
<text x="305" y="128" font-size="10.5" fill="#64748b" text-anchor="middle">requirements</text>
<rect x="412" y="86" width="158" height="58" rx="11" fill="#dbeafe" stroke="#2563eb" stroke-width="2" filter="url(#sh)"/>
<circle cx="428" cy="102" r="11" fill="#2563eb"/>
<text x="428" y="106" font-size="12" font-weight="700" fill="#fff" text-anchor="middle">2</text>
<text x="497" y="111" font-size="13" font-weight="600" fill="#1e3a8a" text-anchor="middle">forge-2-tech</text>
<text x="497" y="128" font-size="10.5" fill="#64748b" text-anchor="middle">design</text>
<rect x="604" y="86" width="158" height="58" rx="11" fill="#dbeafe" stroke="#2563eb" stroke-width="2" filter="url(#sh)"/>
<circle cx="620" cy="102" r="11" fill="#2563eb"/>
<text x="620" y="106" font-size="12" font-weight="700" fill="#fff" text-anchor="middle">3</text>
<text x="689" y="111" font-size="13" font-weight="600" fill="#1e3a8a" text-anchor="middle">forge-3-specs</text>
<text x="689" y="128" font-size="10.5" fill="#64748b" text-anchor="middle">specs</text>
<rect x="796" y="86" width="158" height="58" rx="11" fill="#fef3c7" stroke="#d97706" stroke-width="2" filter="url(#sh)"/>
<text x="810" y="108" font-size="15">✓</text>
<text x="881" y="111" font-size="13" font-weight="600" fill="#92400e" text-anchor="middle">forge-verify</text>
<text x="881" y="128" font-size="10.5" fill="#64748b" text-anchor="middle">gate</text>
<rect x="28" y="208" width="158" height="58" rx="11" fill="#dbeafe" stroke="#2563eb" stroke-width="2" filter="url(#sh)"/>
<circle cx="44" cy="224" r="11" fill="#2563eb"/>
<text x="44" y="228" font-size="12" font-weight="700" fill="#fff" text-anchor="middle">4</text>
<text x="113" y="233" font-size="13" font-weight="600" fill="#1e3a8a" text-anchor="middle">forge-4-backlog</text>
<text x="113" y="250" font-size="10.5" fill="#64748b" text-anchor="middle">backlog.json</text>
<rect x="220" y="208" width="158" height="58" rx="11" fill="#fef3c7" stroke="#d97706" stroke-width="2" filter="url(#sh)"/>
<text x="234" y="230" font-size="15">✓</text>
<text x="305" y="233" font-size="13" font-weight="600" fill="#92400e" text-anchor="middle">forge-verify</text>
<text x="305" y="250" font-size="10.5" fill="#64748b" text-anchor="middle">gate</text>
<rect x="412" y="208" width="158" height="58" rx="11" fill="#dcfce7" stroke="#16a34a" stroke-width="2" filter="url(#sh)"/>
<circle cx="428" cy="224" r="11" fill="#16a34a"/>
<text x="428" y="228" font-size="12" font-weight="700" fill="#fff" text-anchor="middle">5</text>
<text x="497" y="233" font-size="13" font-weight="600" fill="#14532d" text-anchor="middle">forge-5-loop</text>
<text x="497" y="250" font-size="10.5" fill="#64748b" text-anchor="middle">implement</text>
<rect x="604" y="208" width="158" height="58" rx="11" fill="#fef3c7" stroke="#d97706" stroke-width="2" filter="url(#sh)"/>
<text x="618" y="230" font-size="15">✓</text>
<text x="689" y="233" font-size="13" font-weight="600" fill="#92400e" text-anchor="middle">forge-verify</text>
<text x="689" y="250" font-size="10.5" fill="#64748b" text-anchor="middle">gate</text>
<rect x="796" y="208" width="158" height="58" rx="11" fill="#dbeafe" stroke="#2563eb" stroke-width="2" filter="url(#sh)"/>
<circle cx="812" cy="224" r="11" fill="#2563eb"/>
<text x="812" y="228" font-size="12" font-weight="700" fill="#fff" text-anchor="middle">6</text>
<text x="881" y="233" font-size="13" font-weight="600" fill="#1e3a8a" text-anchor="middle">forge-6-docs</text>
<text x="881" y="250" font-size="10.5" fill="#64748b" text-anchor="middle">document</text>
<rect x="650" y="303" width="13" height="13" rx="3" fill="#dbeafe" stroke="#2563eb" stroke-width="1.5"/>
<text x="668" y="314" font-size="10.5" fill="#475569">Stage</text>
<rect x="716" y="303" width="13" height="13" rx="3" fill="#eef2ff" stroke="#6366f1" stroke-width="1.5"/>
<text x="734" y="314" font-size="10.5" fill="#475569">Optional</text>
<rect x="801.2" y="303" width="13" height="13" rx="3" fill="#fef3c7" stroke="#d97706" stroke-width="1.5"/>
<text x="819.2" y="314" font-size="10.5" fill="#475569">Verify gate</text>
<rect x="905.6" y="303" width="13" height="13" rx="3" fill="#dcfce7" stroke="#16a34a" stroke-width="1.5"/>
<text x="923.6" y="314" font-size="10.5" fill="#475569">Loop</text>
</svg>